<svg xmlns="http://www.w3.org/2000/svg" width="159" height="66" viewBox="0 0 159 66">
  <g id="Cloud_1" transform="translate(383 -42)" fill="#fff" stroke-linecap="round" stroke-linejoin="round">
    <path d="M -248.6993255615234 106.5000076293945 L -305.2549133300781 106.5000076293945 L -305.2549133300781 106.2452774047852 L -306.8135986328125 106.3062973022461 C -310.0967407226563 106.4348373413086 -313.4595947265625 106.5000076293945 -316.8087158203125 106.5000076293945 C -326.8857727050781 106.5000076293945 -336.5205078125 105.9326705932617 -345.4452209472656 104.8137588500977 L -345.5577392578125 104.7996520996094 L -345.6711120605469 104.8026351928711 C -346.3316345214844 104.8199462890625 -347.0033569335938 104.8287124633789 -347.6676025390625 104.8287124633789 C -352.3414916992188 104.8287124633789 -356.8721618652344 104.4073181152344 -361.1338195800781 103.5762329101563 C -365.2237243652344 102.7786560058594 -368.8876342773438 101.6410675048828 -372.0238037109375 100.195068359375 C -375.0870971679688 98.78267669677734 -377.4740905761719 97.1575927734375 -379.1184692382813 95.36500549316406 C -380.6990051269531 93.64205169677734 -381.5003967285156 91.84971618652344 -381.5003967285156 90.03779602050781 C -381.5003967285156 86.83754730224609 -378.9805908203125 84.28150939941406 -376.8667602539063 82.70077514648438 C -373.697509765625 80.33078002929688 -369.1610107421875 78.38375854492188 -363.7477111816406 77.07017517089844 L -362.8023681640625 76.84079742431641 L -362.626220703125 75.88408660888672 C -362.2330932617188 73.74873352050781 -361.4286193847656 71.68973541259766 -360.2352294921875 69.76423645019531 C -359.0599670410156 67.86804962158203 -357.5334777832031 66.14071655273438 -355.6981506347656 64.63021850585938 C -353.8484497070313 63.1079216003418 -351.7330017089844 61.84523773193359 -349.4105529785156 60.87725830078125 C -347.0196228027344 59.88071441650391 -344.462158203125 59.21963119506836 -341.8092346191406 58.91231918334961 L -341.1630554199219 58.83746337890625 L -340.7760925292969 58.31459045410156 C -337.5845947265625 54.00213241577148 -332.44482421875 50.32840347290039 -325.9125366210938 47.69052886962891 C -319.1241760253906 44.94925689697266 -311.2137145996094 43.50029754638672 -303.0363159179688 43.50029754638672 C -290.6129455566406 43.50029754638672 -278.9523620605469 46.85088348388672 -271.0444030761719 52.69294357299805 L -270.5524291992188 53.05640411376953 L -269.9465942382813 52.97217178344727 C -268.6005249023438 52.78506851196289 -267.2199401855469 52.69019317626953 -265.8432312011719 52.69019317626953 C -260.5884704589844 52.69019317626953 -255.5768585205078 54.04211044311523 -251.3501434326172 56.59980010986328 C -249.3303527832031 57.82202911376953 -247.5530853271484 59.28548431396484 -246.0676879882813 60.94956970214844 C -244.5777282714844 62.61875534057617 -243.4136657714844 64.45456695556641 -242.6078338623047 66.406005859375 L -242.3356475830078 67.06517028808594 L -241.652587890625 67.27017211914063 C -239.2986907958984 67.97665405273438 -237.0933532714844 68.97654724121094 -235.0978698730469 70.24211120605469 C -233.1341857910156 71.48750305175781 -231.4137115478516 72.96437835693359 -229.9842376708984 74.63173675537109 C -227.0508728027344 78.05321502685547 -225.5003967285156 82.08061218261719 -225.5003967285156 86.27850341796875 C -225.5003967285156 91.25040435791016 -227.7164001464844 96.03219604492188 -231.7402038574219 99.74302673339844 C -235.8023986816406 103.4892959594727 -241.3563690185547 105.8472747802734 -247.3790283203125 106.3826522827148 L -248.6993255615234 106.5000076293945 Z" stroke="none"/>
    <path d="M -248.0988616943359 104.9999923706055 C -247.9106140136719 104.9443511962891 -247.7142944335938 104.9065093994141 -247.5118560791016 104.8885192871094 C -241.8172149658203 104.3823089599609 -236.5772094726563 102.1633377075195 -232.7571258544922 98.64035797119141 C -230.9229583740234 96.94888305664063 -229.4937438964844 95.03121948242188 -228.5090789794922 92.940673828125 C -227.5079803466797 90.81526947021484 -227.0003967285156 88.57376861572266 -227.0003967285156 86.27849578857422 C -227.0003967285156 82.44367218017578 -228.4259643554688 78.75390625 -231.1230163574219 75.60806274414063 C -232.4556274414063 74.05369567871094 -234.0632629394531 72.67453765869141 -235.9012451171875 71.50885772705078 C -237.7810363769531 70.31667327880859 -239.8611297607422 69.37394714355469 -242.0837860107422 68.70687866210938 C -242.9481506347656 68.44744873046875 -243.6498260498047 67.81267547607422 -243.9942779541016 66.97853851318359 C -244.7354583740234 65.18363189697266 -245.8095550537109 63.49126434326172 -247.1867370605469 61.94842529296875 C -248.5726470947266 60.39579010009766 -250.2346954345703 59.02801513671875 -252.126708984375 57.88312911987305 C -256.1191711425781 55.46719741821289 -260.8622741699219 54.1901969909668 -265.8432312011719 54.1901969909668 C -267.1509704589844 54.1901969909668 -268.4620971679688 54.28026580810547 -269.7402038574219 54.45787811279297 C -269.8778686523438 54.47701263427734 -270.0157470703125 54.48645401000977 -270.1531982421875 54.48645401000977 C -270.7911987304688 54.48645401000977 -271.4168090820313 54.28276824951172 -271.9357299804688 53.8994026184082 C -275.5824890136719 51.2053337097168 -280.2481079101563 48.97426605224609 -285.4281616210938 47.44742584228516 C -290.9371337890625 45.82363128662109 -296.8613586425781 45.00031280517578 -303.0363159179688 45.00031280517578 C -311.0230407714844 45.00031280517578 -318.7393188476563 46.41153717041016 -325.3508605957031 49.08140182495117 C -328.4902038574219 50.34910583496094 -331.3138122558594 51.87397003173828 -333.7433166503906 53.61365127563477 C -336.1256713867188 55.31956100463867 -338.086181640625 57.20140075683594 -339.5704345703125 59.20690155029297 C -340.0641479492188 59.87403869628906 -340.8121948242188 60.30683517456055 -341.6366577148438 60.40233612060547 C -344.1504516601563 60.69353866577148 -346.5718383789063 61.31915283203125 -348.8334655761719 62.26178741455078 C -351.02001953125 63.17315292358398 -353.0089416503906 64.35967254638672 -354.7449340820313 65.78840637207031 C -356.453369140625 67.19445037841797 -357.8716125488281 68.7979736328125 -358.9602661132813 70.55447387695313 C -360.0547790527344 72.32042694091797 -360.7918701171875 74.20494842529297 -361.1510314941406 76.15570068359375 C -361.3653259277344 77.31963348388672 -362.243896484375 78.24880981445313 -363.3940124511719 78.52787780761719 C -373.3268127441406 80.93815612792969 -380.0003967285156 85.56362915039063 -380.0003967285156 90.03781127929688 C -380.0003967285156 91.46235656738281 -379.331787109375 92.91351318359375 -378.0130920410156 94.35101318359375 C -376.5251159667969 95.97310638427734 -374.2368774414063 97.52290344238281 -371.3957214355469 98.83287811279297 C -368.3683166503906 100.2287445068359 -364.819091796875 101.3292922973633 -360.8467102050781 102.1039733886719 C -356.6794128417969 102.916633605957 -352.2453308105469 103.3286972045898 -347.6676025390625 103.3286972045898 C -347.016357421875 103.3286972045898 -346.3578491210938 103.3201065063477 -345.7103881835938 103.3031311035156 C -345.6842041015625 103.3024444580078 -345.6580200195313 103.3021011352539 -345.6318359375 103.3021011352539 C -345.5071105957031 103.3021011352539 -345.3824462890625 103.3098831176758 -345.2586059570313 103.3254013061523 C -336.3957214355469 104.4365844726563 -326.8237915039063 104.9999923706055 -316.8087158203125 104.9999923706055 C -313.4788818359375 104.9999923706055 -310.1357727050781 104.9352188110352 -306.8722839355469 104.8074493408203 C -306.8330078125 104.805908203125 -306.7939147949219 104.8051452636719 -306.7547912597656 104.8051452636719 C -306.3884582519531 104.8051452636719 -306.0284118652344 104.8722076416016 -305.6914367675781 104.9999923706055 L -248.0988616943359 104.9999923706055 M -247.2462158203125 107.9999923706055 L -306.7549133300781 107.9999923706055 L -306.7549133300781 107.8051528930664 C -310.0302734375 107.9333801269531 -313.3880310058594 107.9999923706055 -316.8087158203125 107.9999923706055 C -327.1766357421875 107.9999923706055 -336.9704284667969 107.3880157470703 -345.6318054199219 106.3021087646484 C -346.305908203125 106.3197631835938 -346.9839477539063 106.3286972045898 -347.6676025390625 106.3286972045898 C -367.181884765625 106.3286972045898 -383.0003967285156 99.03511047363281 -383.0003967285156 90.03781127929688 C -383.0003967285156 83.77583312988281 -375.3392333984375 78.33942413330078 -364.1014404296875 75.61249542236328 C -362.3638916015625 66.17522430419922 -353.3452453613281 58.73858261108398 -341.9818420410156 57.42226791381836 C -335.2488708496094 48.32456207275391 -320.3429260253906 42.00031280517578 -303.0363159179688 42.00031280517578 C -289.8179016113281 42.00031280517578 -277.9989318847656 45.69028854370117 -270.1531372070313 51.48644638061523 C -268.7511901855469 51.29160690307617 -267.3114624023438 51.1901969909668 -265.8432312011719 51.1901969909668 C -254.4345397949219 51.1901969909668 -244.7400817871094 57.31249237060547 -241.2213897705078 65.83349609375 C -231.1802368164063 68.84712982177734 -224.0003967285156 76.86335754394531 -224.0003967285156 86.27849578857422 C -224.0003967285156 97.48824310302734 -234.1795043945313 106.715217590332 -247.2462158203125 107.8767471313477 L -247.2462158203125 107.9999923706055 Z" stroke="none" fill="#eaf7fe"/>
  </g>
</svg>
