<svg xmlns="http://www.w3.org/2000/svg" width="144" height="66" viewBox="0 0 144 66">
  <g id="Cloud_2" transform="translate(383 -42)" fill="#fff" stroke-linecap="round" stroke-linejoin="round">
    <path d="M -298.9476013183594 106.4999923706055 C -301.9773864746094 106.4999923706055 -305.01904296875 106.4349136352539 -307.9881286621094 106.3065490722656 L -309.5529174804688 106.2389144897461 L -309.5529174804688 106.4999923706055 L -360.6185607910156 106.4999923706055 L -361.8010864257813 106.3839340209961 C -367.2030639648438 105.8537139892578 -372.1893920898438 103.5136108398438 -375.8415222167969 99.79469299316406 C -379.4906921386719 96.07877349853516 -381.5003967285156 91.27863311767578 -381.5003967285156 86.27851104736328 C -381.5003967285156 82.05377197265625 -380.0920715332031 78.00688934326172 -377.4276428222656 74.57535552978516 C -376.137451171875 72.9136962890625 -374.586181640625 71.4429931640625 -372.8170166015625 70.20407104492188 C -371.0244140625 68.94875335693359 -369.0444641113281 67.95732879638672 -366.9321899414063 67.25735473632813 L -366.2505798339844 67.03147125244141 L -365.9990539550781 66.35893249511719 C -365.2673034667969 64.40231323242188 -364.2118225097656 62.56355285644531 -362.8618774414063 60.89369201660156 C -361.521728515625 59.23595428466797 -359.9198913574219 57.77911376953125 -358.1007995605469 56.56369400024414 C -354.3081970214844 54.02963256835938 -349.8143310546875 52.69019317626953 -345.1050109863281 52.69019317626953 C -343.871826171875 52.69019317626953 -342.6351013183594 52.78403091430664 -341.4292297363281 52.96909332275391 L -340.7702026367188 53.07023239135742 L -340.2535705566406 52.6487922668457 C -333.1260681152344 46.83481216430664 -322.6169128417969 43.50031280517578 -311.4207153320313 43.50031280517578 C -304.0509643554688 43.50031280517578 -296.9220886230469 44.94205093383789 -290.8048095703125 47.66963195800781 C -284.9144592285156 50.29605102539063 -280.2775268554688 53.95725250244141 -277.3952941894531 58.25741195678711 L -277.0157775878906 58.82367324829102 L -276.339599609375 58.91015243530273 C -273.9622497558594 59.2142333984375 -271.6697692871094 59.86867141723633 -269.52587890625 60.85533142089844 C -267.4390258789063 61.81573104858398 -265.5369262695313 63.06961441040039 -263.8724975585938 64.58213043212891 C -262.21484375 66.08847045898438 -260.8349914550781 67.81315612792969 -259.7712707519531 69.708251953125 C -258.6860656738281 71.64147186279297 -257.9542236328125 73.71095275878906 -257.5960388183594 75.85919189453125 L -257.4372253417969 76.81151580810547 L -256.5046691894531 77.06139373779297 C -251.6313781738281 78.36711120605469 -247.5482940673828 80.30175018310547 -244.6968841552734 82.65617370605469 C -242.782470703125 84.23689270019531 -240.5004119873047 86.80068969726563 -240.5004119873047 90.03781127929688 C -240.5004119873047 91.87759399414063 -241.22998046875 93.68857574462891 -242.6687927246094 95.42045593261719 C -244.1493225097656 97.20252990722656 -246.29736328125 98.81748962402344 -249.05322265625 100.2205123901367 C -251.8765411376953 101.6578750610352 -255.1759643554688 102.7888717651367 -258.8598022460938 103.5821151733398 C -262.7013244628906 104.409294128418 -266.7858276367188 104.8287124633789 -270.9999084472656 104.8287124633789 C -271.5989685058594 104.8287124633789 -272.2047119140625 104.8199691772461 -272.8002319335938 104.8027114868164 L -272.9253540039063 104.7990951538086 L -273.0493469238281 104.8162536621094 C -281.1198425292969 105.9335098266602 -289.8332824707031 106.4999923706055 -298.9476013183594 106.4999923706055 Z" stroke="none"/>
    <path d="M -298.9476013183594 105.0000076293945 C -289.9020080566406 105.0000076293945 -281.2577819824219 104.4382781982422 -273.2550354003906 103.3304443359375 C -273.1186218261719 103.3115692138672 -272.9811706542969 103.3021087646484 -272.8435668945313 103.3021087646484 C -272.8146667480469 103.3021087646484 -272.7857666015625 103.3025283813477 -272.7568664550781 103.3033599853516 C -272.1756286621094 103.320198059082 -271.58447265625 103.3287124633789 -270.9999084472656 103.3287124633789 C -266.8917846679688 103.3287124633789 -262.9135131835938 102.9206085205078 -259.1755676269531 102.1157379150391 C -255.6183319091797 101.3497543334961 -252.441650390625 100.2623596191406 -249.7337493896484 98.88377380371094 C -247.1970062255859 97.59231567382813 -245.1529541015625 96.06325531005859 -243.8225860595703 94.46189880371094 C -242.6134796142578 93.00654602050781 -242.0004119873047 91.51806640625 -242.0004119873047 90.03779602050781 C -242.0004119873047 87.38478088378906 -243.9861297607422 85.18827819824219 -245.6519317626953 83.81282043457031 C -248.3387298583984 81.59433746337891 -252.2257995605469 79.76073455810547 -256.8928833007813 78.51027679443359 C -258.0288391113281 78.20592498779297 -258.8822021484375 77.26589965820313 -259.0755920410156 76.10590362548828 C -259.4051818847656 74.12936401367188 -260.0793151855469 72.22389984130859 -261.0792846679688 70.44246673583984 C -262.06396484375 68.68819427490234 -263.3431701660156 67.08998870849609 -264.8812866210938 65.69223785400391 C -266.4320068359375 64.28305053710938 -268.2056579589844 63.11413192749023 -270.1529846191406 62.21794509887695 C -272.1583251953125 61.29507064819336 -274.3038024902344 60.68275833129883 -276.5299072265625 60.39802932739258 C -277.3891906738281 60.28813171386719 -278.1589965820313 59.81215286254883 -278.6413269042969 59.09256744384766 C -281.3661499023438 55.02717208862305 -285.783447265625 51.55092239379883 -291.4156494140625 49.03961181640625 C -297.3421936035156 46.39706802368164 -304.2598266601563 45.00029754638672 -311.4207153320313 45.00029754638672 C -316.9574890136719 45.00029754638672 -322.2688903808594 45.81525802612305 -327.2074279785156 47.42252731323242 C -331.85107421875 48.93384170532227 -336.0344848632813 51.14298629760742 -339.305419921875 53.81115341186523 C -339.8444213867188 54.25081253051758 -340.5152587890625 54.48647689819336 -341.2016296386719 54.48647689819336 C -341.3529968261719 54.48647689819336 -341.5052185058594 54.47500228881836 -341.6567993164063 54.45173645019531 C -342.7875671386719 54.27819442749023 -343.9476928710938 54.19019317626953 -345.1050109863281 54.19019317626953 C -349.5166320800781 54.19019317626953 -353.7223510742188 55.44221496582031 -357.2674560546875 57.8109016418457 C -358.9606628417969 58.94223403930664 -360.4504089355469 60.29669570922852 -361.6954040527344 61.83671569824219 C -362.9436950683594 63.380859375 -363.9189758300781 65.07915496826172 -364.5941162109375 66.88436126708984 C -364.9122009277344 67.73486328125 -365.598388671875 68.39554595947266 -366.4603271484375 68.68119049072266 C -368.4342041015625 69.33531951904297 -370.2834167480469 70.26109313964844 -371.9566040039063 71.43277740478516 C -373.6026916503906 72.58548736572266 -375.0447998046875 73.95231628417969 -376.2428588867188 75.49530029296875 C -378.7010498046875 78.66123962402344 -380.0003967285156 82.39000701904297 -380.0003967285156 86.27850341796875 C -380.0003967285156 90.88308715820313 -378.1433410644531 95.30998229980469 -374.7713012695313 98.74369049072266 C -371.3652648925781 102.2120056152344 -366.7070007324219 104.3951950073242 -361.6545715332031 104.89111328125 C -361.4618225097656 104.910026550293 -361.2747802734375 104.9469146728516 -361.0951232910156 105.0000076293945 L -309.1165161132813 105.0000076293945 C -308.7794189453125 104.8721923828125 -308.4194030761719 104.8051452636719 -308.0530395507813 104.8051452636719 C -308.0099487304688 104.8051452636719 -307.9666137695313 104.8060760498047 -307.92333984375 104.8079452514648 C -304.9752807617188 104.9353790283203 -301.9553833007813 105.0000076293945 -298.9476013183594 105.0000076293945 M -298.9476013183594 108.0000076293945 C -302.0455627441406 108.0000076293945 -305.0865478515625 107.9333801269531 -308.0529174804688 107.8051528930664 L -308.0529174804688 108.0000076293945 L -361.9476013183594 108.0000076293945 L -361.9476013183594 107.8767547607422 C -373.7815856933594 106.7152328491211 -383.0003967285156 97.48823547363281 -383.0003967285156 86.27850341796875 C -383.0003967285156 76.86334228515625 -376.4979248046875 68.84712982177734 -367.4040222167969 65.83348846435547 C -364.21728515625 57.31250762939453 -355.4374084472656 51.19019317626953 -345.1050109863281 51.19019317626953 C -343.7752990722656 51.19019317626953 -342.4713745117188 51.29159164428711 -341.2016906738281 51.48646545410156 C -334.0960693359375 45.69029998779297 -323.39208984375 42.00029754638672 -311.4207153320313 42.00029754638672 C -295.7467956542969 42.00029754638672 -282.2470703125 48.32456970214844 -276.1492919921875 57.42227935791016 C -265.85791015625 58.73859024047852 -257.6900634765625 66.17521667480469 -256.116455078125 75.61248779296875 C -245.9388122558594 78.33942413330078 -239.0004119873047 83.77581787109375 -239.0004119873047 90.03779602050781 C -239.0004119873047 99.03511047363281 -253.3265991210938 106.3287124633789 -270.9999084472656 106.3287124633789 C -271.6190795898438 106.3287124633789 -272.233154296875 106.3197784423828 -272.8436584472656 106.3021087646484 C -280.6879272460938 107.3880081176758 -289.5577697753906 108.0000076293945 -298.9476013183594 108.0000076293945 Z" stroke="none" fill="#edf8fe"/>
  </g>
</svg>
