<svg xmlns="http://www.w3.org/2000/svg" width="19.672" height="9.994" viewBox="0 0 19.672 9.994">
  <g id="Droplet" transform="translate(-66.282 -370.034) rotate(-93)" fill="#707070">
    <path d="M -378.5003967285156 65.49970245361328 C -380.7059936523438 65.49970245361328 -382.5003967285156 63.87205123901367 -382.5003967285156 61.87140274047852 C -382.5003967285156 61.33017349243164 -382.3721008300781 60.80959320068359 -382.1190185546875 60.32410430908203 L -382.0912475585938 60.27082443237305 L -382.076904296875 60.21248245239258 L -378.9859924316406 47.65299224853516 C -378.8989562988281 47.30021286010742 -378.5920715332031 47.27278137207031 -378.5000610351563 47.27278137207031 C -378.4081420898438 47.27278137207031 -378.1015319824219 47.3001823425293 -378.0148315429688 47.6528434753418 L -374.9223937988281 60.21511459350586 L -374.9080810546875 60.27322387695313 L -374.8804626464844 60.32632446289063 C -374.6282653808594 60.81117248535156 -374.5003967285156 61.33101272583008 -374.5003967285156 61.87140274047852 C -374.5003967285156 63.87205123901367 -376.2947998046875 65.49970245361328 -378.5003967285156 65.49970245361328 Z" stroke="none"/>
    <path d="M -378.5003967285156 64.99970245361328 C -376.5704956054688 64.99970245361328 -375.0003967285156 63.59635162353516 -375.0003967285156 61.87140274047852 C -375.0003967285156 61.41214370727539 -375.1092834472656 60.96993255615234 -375.3240356445313 60.55705261230469 L -375.3792724609375 60.45085144042969 L -375.4078979492188 60.33462142944336 L -378.500244140625 47.77278518676758 C -378.5003356933594 47.77278518676758 -378.5004577636719 47.77278518676758 -378.5004577636719 47.7724723815918 L -381.5913696289063 60.33196258544922 L -381.6200866699219 60.44865417480469 L -381.6756591796875 60.55522155761719 C -381.8911437988281 60.96862411499023 -382.0003967285156 61.41145324707031 -382.0003967285156 61.87140274047852 C -382.0003967285156 63.59635162353516 -380.4302978515625 64.99970245361328 -378.5003967285156 64.99970245361328 M -378.5003967285156 65.99970245361328 C -380.9853210449219 65.99970245361328 -383.0003967285156 64.15200042724609 -383.0003967285156 61.87140274047852 C -383.0003967285156 61.23469161987305 -382.8431396484375 60.63156127929688 -382.5624084472656 60.09299468994141 L -379.4714965820313 47.53350448608398 C -379.3464050292969 47.02635192871094 -378.9231872558594 46.77277755737305 -378.5000610351563 46.77277755737305 C -378.0769653320313 46.77277755737305 -377.6539611816406 47.02635192871094 -377.529296875 47.53350448608398 L -374.4368896484375 60.0955924987793 C -374.1570739746094 60.6335334777832 -374.0003967285156 61.23566436767578 -374.0003967285156 61.87140274047852 C -374.0003967285156 64.15200042724609 -376.0146179199219 65.99970245361328 -378.5003967285156 65.99970245361328 Z" stroke="none" fill="#707070"/>
  </g>
</svg>
