<svg xmlns="http://www.w3.org/2000/svg" width="232.619" height="230.989" viewBox="0 0 232.619 230.989">
  <path id="Sun" d="M-1388.432,199.092h0l-6.095-57.749a43.2,43.2,0,0,0,6.063.427,43.2,43.2,0,0,0,6.129-.437Zm50.382-12.623-34.7-47.683a42.574,42.574,0,0,0,10.719-6.183l23.984,53.866Zm-100.2-.7h0l23.59-52.98a42.583,42.583,0,0,0,10.575,6.036Zm136.954-36.115-53.822-23.918a42.536,42.536,0,0,0,6.229-10.652l47.594,34.57Zm-173.431-.314h0l46.8-33.995a42.543,42.543,0,0,0,6.173,10.454Zm128.435-43.779h0a43.062,43.062,0,0,0,.476-6.388,43.088,43.088,0,0,0-.407-5.908L-1287.9,99.4l-58.4,6.152Zm-84.348-.079L-1489,99.329l58.307-6.142a43.105,43.105,0,0,0-.417,5.979,43.071,43.071,0,0,0,.464,6.309Zm81.889-21.873h0a42.521,42.521,0,0,0-5.963-10.486l52.556-23.356L-1348.755,83.6Zm-79.371-.121-47.292-34.351,53.4,23.733a42.524,42.524,0,0,0-6.112,10.617h0Zm66.138-17.716h0a42.608,42.608,0,0,0-10.4-6.07l33.744-46.367-23.348,52.438Zm-52.842-.087-23.7-53.237,34.3,47.129a42.586,42.586,0,0,0-10.594,6.108Zm32.381-8.7h0a43.156,43.156,0,0,0-6.014-.421,43.225,43.225,0,0,0-6.014.42L-1388.465,0l6.015,56.984Z" transform="matrix(0.985, 0.174, -0.174, 0.985, 1500.95, 258.562)" fill="#faf7e6"/>
</svg>
